<svg xmlns="http://www.w3.org/2000/svg" width="30" height="30" viewBox="0 0 30 30">
    <path d="m0 2.42 2.41 2.42L7.24 0" transform="translate(11.38 12.58)" style="stroke:#000;stroke-linecap:round;stroke-linejoin:round;stroke-width:1.5px;fill:none"/>
    <path data-name="Vector" d="M11.368.575a2.619 2.619 0 0 1 3.276 0L16.7 2.343a2.881 2.881 0 0 0 1.638.611h2.21a2.519 2.519 0 0 1 2.509 2.509v2.21a2.916 2.916 0 0 0 .611 1.638l1.768 2.054a2.62 2.62 0 0 1 0 3.276l-1.768 2.054a2.881 2.881 0 0 0-.611 1.638v2.21a2.519 2.519 0 0 1-2.509 2.509h-2.21a2.916 2.916 0 0 0-1.638.611l-2.057 1.767a2.619 2.619 0 0 1-3.276 0l-2.053-1.768a2.881 2.881 0 0 0-1.638-.611H5.427a2.519 2.519 0 0 1-2.509-2.509v-2.223a2.958 2.958 0 0 0-.6-1.625L.565 14.627a2.617 2.617 0 0 1 0-3.25L2.32 9.311a2.958 2.958 0 0 0 .6-1.625V5.45a2.519 2.519 0 0 1 2.507-2.509h2.249a2.916 2.916 0 0 0 1.638-.611z" transform="translate(2.005 2.008)" style="stroke:#000;stroke-linecap:round;stroke-linejoin:round;stroke-width:1.5px;fill:none"/>
</svg>
