<svg xmlns="http://www.w3.org/2000/svg" width="260" height="30.253" viewBox="0 0 260 30.253">
    <defs>
        <clipPath id="0656v3q9fa">
            <path data-name="사각형 3668" style="fill:#fff" d="M0 0h260v30.131H0z"/>
        </clipPath>
    </defs>
    <g data-name="그룹 4474">
        <g data-name="그룹 4473" style="clip-path:url(#0656v3q9fa)">
            <path data-name="패스 218" d="M2.218 28.413q1.92.059 3.7.06t3.684-.06l.074.64-1.847.547a.477.477 0 0 0-.4.461q-.015.521-.022 1.138t-.007 1.35v13.48q0 1.458-.112 2.656a10.913 10.913 0 0 1-.4 2.135 5.811 5.811 0 0 1-.8 1.674A5.507 5.507 0 0 1 4.781 53.8a8.437 8.437 0 0 1-1.908 1 20.02 20.02 0 0 1-2.65.8L0 54.852a8.824 8.824 0 0 0 2.434-1.443 5.309 5.309 0 0 0 1.34-1.8 7.308 7.308 0 0 0 .581-2.276q.126-1.265.126-2.857V32.609q0-.759-.007-1.369t-.022-1.1a.507.507 0 0 0-.357-.506l-1.846-.58z" transform="translate(0 -25.465)" style="fill:#fff"/>
            <path data-name="패스 219" d="m103.521 25.807 5.719 15.746a4.352 4.352 0 0 0 .586 1.2 1.568 1.568 0 0 0 .753.47l1.211.36.026.554q-1.687-.039-3.13-.039-1.468 0-3.465.039l-.051-.554 1.224-.36a.986.986 0 0 0 .367-.2.465.465 0 0 0 .11-.341 2.324 2.324 0 0 0-.135-.676q-.135-.418-.38-1.114l-1.211-3.45h-6.21l-1.352 3.437q-.271.721-.425 1.146A2.108 2.108 0 0 0 97 42.7a.418.418 0 0 0 .122.328 1 1 0 0 0 .367.187l1.2.348.026.579q-1.829-.039-2.988-.039t-2.589.039l-.064-.554 1.3-.4a1.356 1.356 0 0 0 .721-.476 5.258 5.258 0 0 0 .515-1L102.194 26zm-4.109 10.467h5.307l-2.512-7.094z" transform="translate(-83.413 -23.129)" style="fill:#fff"/>
            <path data-name="패스 220" d="m256.38 37.271 2.98-5.626q.322-.618.541-1.056a1.712 1.712 0 0 0 .219-.721q0-.4-.567-.554l-1.159-.309-.026-.592q1.391.052 2.847.051 1.4 0 2.731-.051l.052.554-1.3.412a1.429 1.429 0 0 0-.715.451 5.675 5.675 0 0 0-.509.76l-4.457 7.944v3.914q0 .772.006 1.4t.018 1.152q.013.322.451.438l1.6.489.026.554q-1.8-.039-3.33-.039-1.565 0-3.342.039l-.052-.554 1.726-.515a.427.427 0 0 0 .348-.4q.013-.515.019-1.152t.006-1.41V38.8l-4.534-7.853a8.794 8.794 0 0 0-.779-1.133 1.62 1.62 0 0 0-.805-.489l-1.172-.36-.026-.554q1.172.052 3.169.051 1.739 0 3.594-.051l.052.554-1.211.335a.774.774 0 0 0-.386.187.423.423 0 0 0-.116.3 1.534 1.534 0 0 0 .2.663q.2.393.5.908z" transform="translate(-221.515 -25.465)" style="fill:#fff"/>
            <path data-name="패스 221" d="M411.448 28.413q1.661.052 3.194.051t3.194-.051l.052.554-1.6.476a.409.409 0 0 0-.335.4q-.013.451-.019.985t-.006 1.165v7.042q0 3.682 1.172 5.1a5.718 5.718 0 0 0 7.6-.045q1.185-1.468 1.185-4.905v-7.2q0-.631-.006-1.165t-.032-.985a.42.42 0 0 0-.335-.4l-1.507-.438-.026-.592q1.636.052 2.808.051 1.121 0 2.731-.051l.052.554-1.623.5a.439.439 0 0 0-.309.438q-.013.425-.019.953t-.006 1.184v6.6q0 4.223-1.72 6.244t-5.416 2.021q-3.619 0-5.345-1.822t-1.726-5.658v-7.39q0-.657-.006-1.184t-.019-.953a.439.439 0 0 0-.309-.438l-1.6-.5z" transform="translate(-368.735 -25.465)" style="fill:#fff"/>
            <path data-name="패스 222" d="m684.329 5.5-.591.093-1.083-3.893a13.834 13.834 0 0 0-3.32-.458 6.944 6.944 0 0 0-5.691 2.529 10.01 10.01 0 0 0-2.072 6.558 9.8 9.8 0 0 0 2.364 6.89 8.461 8.461 0 0 0 6.547 2.569 15.053 15.053 0 0 0 4.954-.9l.159.664a11.313 11.313 0 0 1-6.587 2.011 10.545 10.545 0 0 1-7.729-2.907 10.311 10.311 0 0 1-2.948-7.673 10.314 10.314 0 0 1 3.247-8.025A12.087 12.087 0 0 1 680.026 0a22.537 22.537 0 0 1 5.113.611l.106.113z" transform="translate(-598.951)" style="fill:#fff"/>
            <path data-name="패스 223" d="m1911.2 5.5-.591.093-1.082-3.89a13.836 13.836 0 0 0-3.32-.458 6.944 6.944 0 0 0-5.691 2.529 10.01 10.01 0 0 0-2.072 6.558 9.8 9.8 0 0 0 2.364 6.89 8.462 8.462 0 0 0 6.547 2.569 15.056 15.056 0 0 0 4.954-.9l.159.664a11.312 11.312 0 0 1-6.587 2.011 10.544 10.544 0 0 1-7.729-2.907 10.31 10.31 0 0 1-2.948-7.673 10.315 10.315 0 0 1 3.247-8.025A12.088 12.088 0 0 1 1906.893 0a22.537 22.537 0 0 1 5.113.611l.106.113z" transform="translate(-1698.456)" style="fill:#fff"/>
            <path data-name="패스 224" d="M863.351 45.962a9.436 9.436 0 0 1-2.362 6.694 8.608 8.608 0 0 1-6.61 2.528 8.141 8.141 0 0 1-6.232-2.339 8.847 8.847 0 0 1-2.205-6.332 8.992 8.992 0 0 1 2.373-6.58 8.8 8.8 0 0 1 6.583-2.426 8.326 8.326 0 0 1 6.248 2.269 8.483 8.483 0 0 1 2.205 6.186m-14.777.157a9.773 9.773 0 0 0 1.589 6.008 5.5 5.5 0 0 0 4.654 2.085 5.231 5.231 0 0 0 4.459-1.9q1.443-1.888 1.438-5.943a9.643 9.643 0 0 0-1.524-5.846 5.506 5.506 0 0 0-4.719-2.048 5.22 5.22 0 0 0-4.5 1.9 9.679 9.679 0 0 0-1.4 5.743" transform="translate(-758.123 -33.615)" style="fill:#fff"/>
            <path data-name="패스 225" d="M1032.494 41.309q1.557.049 2.984.049 1.443 0 2.984-.049l.049.519-1.492.448a.378.378 0 0 0-.314.373l-.016.918c-.005.335-.005.7-.005 1.086v6.58c0 2.291.362 3.884 1.1 4.77a5.337 5.337 0 0 0 7.1-.043c.735-.913 1.108-2.442 1.108-4.581v-6.726c0-.389-.005-.756-.005-1.086s-.016-.637-.032-.918a.384.384 0 0 0-.314-.373l-1.405-.411-.027-.556c1.022.032 1.892.049 2.627.049q1.046 0 2.546-.049l.049.519-1.514.47a.418.418 0 0 0-.292.411l-.016.886c-.005.324-.005.7-.005 1.107v6.17q0 3.947-1.605 5.835t-5.059 1.886a6.588 6.588 0 0 1-4.994-1.7q-1.614-1.7-1.611-5.284V44.7c0-.405-.005-.778-.011-1.107s-.005-.621-.016-.886a.406.406 0 0 0-.286-.411l-1.492-.47z" transform="translate(-925.309 -37.023)" style="fill:#fff"/>
            <path data-name="패스 226" d="M1213.467 44.739v9.719c0 .946.011 1.729.027 2.356a.389.389 0 0 0 .3.411l1.432.421.027.54a93.782 93.782 0 0 0-2.47-.038c-.627 0-1.454.011-2.492.038l-.043-.519 1.475-.443a.392.392 0 0 0 .324-.373c.016-.654.027-1.448.027-2.393V44.7c0-.8-.011-1.464-.027-1.994a.407.407 0 0 0-.286-.411l-1.492-.47-.021-.519c1.032.032 1.848.049 2.454.049.357 0 .724-.016 1.092-.049l10.106 12.623v-9.277c0-.778-.005-1.448-.022-2a.389.389 0 0 0-.313-.373l-1.422-.411-.021-.556c1.027.032 1.854.049 2.486.049s1.465-.016 2.47-.049l.049.519-1.519.47a.406.406 0 0 0-.286.411c-.016.53-.027 1.194-.027 1.994v13.442l-1.011.1z" transform="translate(-1084.608 -37.022)" style="fill:#fff"/>
            <path data-name="패스 227" d="M1389.375 58.148q-1.476 0-3.27.038l-.048-.519 1.784-.529a.37.37 0 0 0 .308-.373c.016-.61.027-1.388.027-2.334v-12h-4.248l-1.07 3.2-.481.081-.314-4.306.086-.1q2.959.049 5.665.049h3.21q2.7 0 5.691-.049l.076.1-.762 4.225-.481.081-.768-3.285h-4.248v12c0 .945.011 1.723.027 2.334a.37.37 0 0 0 .308.373l1.784.529.022.519q-1.865-.04-3.3-.038" transform="translate(-1238.588 -37.022)" style="fill:#fff"/>
            <path data-name="패스 228" d="M1540.625 53.945c0 .481 0 .913.005 1.3l.016 1.048a.446.446 0 0 0 .314.465l1.335.4.038.519a113.408 113.408 0 0 0-5.849 0l-.049-.519 1.481-.443a.406.406 0 0 0 .324-.373c.011-.324.016-.681.016-1.081s.011-.832.011-1.313v-9.76c0-.405-.005-.778-.011-1.107s-.005-.621-.016-.886a.407.407 0 0 0-.286-.411l-1.492-.47-.027-.519q1.557.049 3.032.049c.195 0 .443-.005.741-.016s.665-.027 1.1-.043.8-.027 1.092-.032.524-.016.7-.016a6.9 6.9 0 0 1 4.156 1.037 3.528 3.528 0 0 1 1.384 3.02 4.285 4.285 0 0 1-.951 2.9 6.046 6.046 0 0 1-2.9 1.713c.513.773.984 1.513 1.416 2.231s.833 1.378 1.2 1.972.714 1.129 1.016 1.583a7.223 7.223 0 0 0 .859 1.081 3.4 3.4 0 0 0 .411.357 2.131 2.131 0 0 0 .427.249 4.385 4.385 0 0 0 .47.167c.162.049.346.1.546.146l.038.53a12.551 12.551 0 0 1-1.454.108c-.33 0-.621-.011-.87-.027a3.769 3.769 0 0 1-.665-.1 2.954 2.954 0 0 1-.535-.184 2.317 2.317 0 0 1-.465-.3 4.386 4.386 0 0 1-.984-1.075c-.319-.47-.654-1-1-1.594s-.708-1.226-1.081-1.891-.767-1.329-1.184-1.967a5.474 5.474 0 0 0-.308-.459 1.075 1.075 0 0 0-.281-.265 1.041 1.041 0 0 0-.357-.135 3.813 3.813 0 0 0-.513-.043l-.843-.027zm0-5.078c.487.027.94.038 1.357.038a4.443 4.443 0 0 0 3.054-.886 3.587 3.587 0 0 0 .968-2.772 3.452 3.452 0 0 0-.924-2.669 4.232 4.232 0 0 0-2.9-.843c-.227 0-.465.011-.724.027s-.53.038-.827.07z" transform="translate(-1376.936 -36.509)" style="fill:#fff"/>
            <path data-name="패스 229" d="m1669 49.585 2.778-5.257a41.1 41.1 0 0 0 .508-.983 1.631 1.631 0 0 0 .206-.675c0-.249-.178-.421-.53-.519l-1.081-.286-.027-.556q1.3.049 2.659.049c.875 0 1.724-.016 2.551-.049l.049.519-1.216.384a1.362 1.362 0 0 0-.665.421 5.074 5.074 0 0 0-.476.713l-4.167 7.418v3.656c0 .481.006.918.006 1.313s.011.746.021 1.07q.008.3.422.405l1.492.459.022.519a129.138 129.138 0 0 0-6.232 0l-.049-.519 1.611-.481a.4.4 0 0 0 .33-.373l.016-1.075c.005-.394.006-.837.006-1.318v-3.4L1663 43.68a7.536 7.536 0 0 0-.724-1.059 1.5 1.5 0 0 0-.751-.454l-1.1-.34-.021-.519c.73.032 1.713.049 2.956.049q1.63 0 3.356-.049l.049.519-1.13.313a.733.733 0 0 0-.362.173.41.41 0 0 0-.108.286 1.425 1.425 0 0 0 .189.616c.124.249.275.529.459.848z" transform="translate(-1488.036 -37.022)" style="fill:#fff"/>
            <path data-name="패스 230" d="M2084.861 44.652v9.779c0 .891.005 1.767.021 2.636h5.859l1.54-3.188.546-.086-.265 4.306-.075.086c-2.075-.027-4-.038-5.762-.038h-3.025c-.968 0-1.962.011-2.984.038l-.049-.519 1.481-.443a.405.405 0 0 0 .324-.373c.011-.324.017-.681.017-1.081s.01-.832.01-1.313V44.7c0-.405-.005-.778-.01-1.108s-.005-.621-.017-.886a.406.406 0 0 0-.286-.411l-1.492-.47-.027-.519q1.557.049 2.984.049 1.443 0 2.984-.049l.049.519-1.492.448a.379.379 0 0 0-.314.373c-.005.281-.011.686-.016 1.226s-.005.794-.005.778" transform="translate(-1864.674 -37.022)" style="fill:#fff"/>
            <path data-name="패스 231" d="M2202.714 41.309q1.557.049 2.984.049 1.443 0 2.984-.049l.048.519-1.492.448a.378.378 0 0 0-.313.373l-.016.918c-.005.335-.005.7-.005 1.086v6.58c0 2.291.362 3.884 1.1 4.77a5.337 5.337 0 0 0 7.1-.043c.735-.913 1.108-2.442 1.108-4.581v-6.726c0-.389-.005-.756-.005-1.086s-.017-.637-.033-.918a.383.383 0 0 0-.314-.373l-1.405-.411-.027-.556a85.74 85.74 0 0 0 2.627.049q1.046 0 2.546-.049l.049.519-1.513.47a.417.417 0 0 0-.292.411c-.006.265-.011.562-.016.886s-.005.7-.005 1.107v6.17q0 3.947-1.6 5.835t-5.059 1.886a6.588 6.588 0 0 1-4.994-1.7q-1.614-1.7-1.611-5.284V44.7c0-.405-.006-.778-.011-1.107s-.006-.621-.016-.886a.406.406 0 0 0-.287-.411l-1.492-.47z" transform="translate(-1974.047 -37.023)" style="fill:#fff"/>
            <path data-name="패스 232" d="M2383.277 40.7c1.038.032 2.049.049 3.043.049.373-.016.984-.038 1.821-.07s1.405-.049 1.7-.049a6.773 6.773 0 0 1 3.994.983 3.255 3.255 0 0 1 1.352 2.82q0 2.958-3.189 4.025a4.9 4.9 0 0 1 2.865 1.383 3.855 3.855 0 0 1 1 2.734 4.394 4.394 0 0 1-1.751 3.722 7.933 7.933 0 0 1-4.854 1.313c-.411 0-.854-.011-1.335-.032s-1.016-.038-1.611-.038c-.973 0-1.968.011-2.989.038l-.049-.519 1.481-.443a.405.405 0 0 0 .324-.373c.011-.324.016-.681.016-1.08s.011-.832.011-1.313v-9.755c0-.405-.005-.778-.011-1.107s-.005-.621-.016-.886a.407.407 0 0 0-.287-.411l-1.492-.47zm4.189 7.51c.492.005.994.011 1.508.011a3.737 3.737 0 0 0 2.675-.859 3.27 3.27 0 0 0 .9-2.5 3.012 3.012 0 0 0-.924-2.474 4.164 4.164 0 0 0-2.675-.751 11.542 11.542 0 0 0-1.487.086zm0 .962v7.3a3.07 3.07 0 0 0 .832.167c.313.022.606.038.87.038a4.206 4.206 0 0 0 3.021-.989 3.756 3.756 0 0 0 1.038-2.863 3.492 3.492 0 0 0-1.049-2.782 5.121 5.121 0 0 0-3.384-.908c-.454 0-.9.011-1.33.038" transform="translate(-2135.865 -36.416)" style="fill:#fff"/>
        </g>
    </g>
</svg>
