<svg xmlns="http://www.w3.org/2000/svg" width="126" height="53.669" viewBox="0 0 126 53.669">
    <defs>
        <clipPath id="0zwxnma2ja">
            <path data-name="사각형 63" style="fill:#72787c" d="M0 0h126v53.669H0z"/>
        </clipPath>
    </defs>
    <g style="clip-path:url(#0zwxnma2ja)">
        <path data-name="패스 29" d="M14.088 19.118v12.76c0 4.6-.221 7.075-2.6 11.161-1.378 2.379-3.537 4.866-9.5 9.4l-1.159-.392c4.308-4.585 5.245-7.627 5.854-9.892.83-2.871 1.328-9.725 1.328-22.1v-3.816c0-2.094-.06-11.434-.5-14.3-1.323-.226-5.691-.671-7.293-.782L0 0c1.322.107 7.842.217 10.885.217 2.983 0 7.681-.111 9.558-.217l-.167 1.157c-.936.111-3.979.556-5.909.777-.224 1.709-.278 13.037-.278 14.256z" style="fill:#72787c"/>
        <path data-name="패스 30" d="M52.087 35.215a37.154 37.154 0 0 0 4.8-.666c-.859-2.475-4.229-12.54-4.99-13.918-1.66 0-9.215.331-10.97.612A112.164 112.164 0 0 0 37.6 34.549a27.59 27.59 0 0 0 4.085.666l.189 1c-1.472-.091-5.793-.194-7.172-.194-1.233 0-4.416.1-5.509.194l.141-1a37.885 37.885 0 0 0 4.087-.666C35.132 31.556 44.583 6 45.245 4.194a32.149 32.149 0 0 0-3.75-.617l-.046-.994c1.424.091 5.368.187 6.172.187 1.993 0 6.747-.1 8.122-.187l-.141.994a28.37 28.37 0 0 0-3.61.617c.572 2.1 3.183 9.542 4.985 14.538a165.415 165.415 0 0 0 6.461 15.818c1.38.282 2.757.476 4.181.666l.144 1c-.569-.091-5.372-.194-7.885-.194-1.375 0-6.747.1-8.026.194zM46.722 5h-.1c-1.467 4.23-4.554 12.443-5.03 14.016l9.973.187C50.52 16.07 47.528 7.617 46.722 5" transform="translate(-9.873 -.873)" style="fill:#72787c"/>
        <path data-name="패스 31" d="M95.969 24.046a27.305 27.305 0 0 0-.144-3.13c-.379-1.233-9.4-14.624-11.591-16.677a25.117 25.117 0 0 0-3.32-.662l-.194-.994c.811.091 3.944.187 8.266.187 2.711 0 5.893-.1 6.558-.187l-.242.994c-.852.19-2.992.43-4.085.662 2.8 4.946 7.652 11.876 9.123 14.4.758-1.378 8.073-12.443 8.216-14.4-1-.232-3.087-.568-3.706-.662l-.143-.994c.716.091 3.374.187 5.986.187 2.185 0 4.656-.1 5.749-.187l-.144.994c-.71.145-2.232.385-3.229.662-1.043.335-10.828 14.2-11.491 16.3a23.083 23.083 0 0 0-.191 3.37v1.809c0 1.283.046 7.65.234 8.835.575.144 3.7.521 4.605.666l.095 1c-1-.091-5.267-.194-8.5-.194-1.708 0-5.177.1-6.511.194l.246-1a39.933 39.933 0 0 0 4.175-.666c.193-.709.238-5.94.238-8.98z" transform="translate(-27.3 -.873)" style="fill:#72787c"/>
        <path data-name="패스 32" d="M138.9 14.977c0-4.272-.1-9.409-.238-10.738-1-.232-2.471-.472-3.752-.662l-.144-.994c1.327.092 4.369.187 8.026.187 2.187 0 5.846-.1 7.032-.187l-.238.994c-1.281.145-3.422.385-4.942.662-.143.807-.232 6.842-.232 10.928v6.316c0 10.073 4.272 13.5 9.4 13.5 3.134 0 5.227-.762 6.842-2.288 2.562-2.422 3.18-6.6 3.18-12.3v-4.371c0-1.523-.046-10.212-.235-11.785-1.094-.186-3.946-.567-5.18-.662l-.331-.994c1.184.092 4.748.187 7.695.187 2.471 0 4.986-.1 5.8-.187l-.286.994c-.807.191-2.092.385-3.326.662-.143.713-.236 6.656-.236 7.939v2.282c0 1.846.093 4.127.093 5.836 0 5.368-1 9.928-4.652 13.16-2.186 1.945-5.228 3.324-9.93 3.324-9.83 0-14.341-6.081-14.341-14.393z" transform="translate(-45.578 -.873)" style="fill:#72787c"/>
        <path data-name="패스 33" d="M36.73 66.128a9.8 9.8 0 0 0-.089-1.2 4 4 0 0 0-3.463-1.664 4.076 4.076 0 0 0-4.265 4.136 5.246 5.246 0 0 0 5.348 5.174 6.829 6.829 0 0 0 3.4-.781l-.2.625a7.789 7.789 0 0 1-4.038.86 8.124 8.124 0 0 1-3.261-.633 4.935 4.935 0 0 1-2.977-4.4 5.056 5.056 0 0 1 2.273-4.3 7.027 7.027 0 0 1 4.283-1.2 13.153 13.153 0 0 1 3 .377c.083-.19.259-1.107.306-1.279l.324-.069a33.8 33.8 0 0 0-.308 4.435z" transform="translate(-9.194 -20.896)" style="fill:#72787c"/>
        <path data-name="패스 34" d="M45.583 73.318a3.712 3.712 0 0 1-1.138-2.871c0-2.353 1.936-4.489 5.212-4.489a5.11 5.11 0 0 1 3.286.96 3.685 3.685 0 0 1 1.435 2.947c0 2.909-2.2 4.786-5.125 4.786a4.826 4.826 0 0 1-3.67-1.333m7.347-2.585c0-2.513-1.746-4.322-3.714-4.322a3.321 3.321 0 0 0-3.406 3.537 4.189 4.189 0 0 0 4.023 4.216 3.28 3.28 0 0 0 3.1-3.431" transform="translate(-15.031 -22.307)" style="fill:#72787c"/>
        <path data-name="패스 35" d="M62 69.274c0-1.066-.026-2.349-.065-2.685-.248-.053-.62-.114-.932-.167l-.042-.24c.333.019 1.1.046 2.012.046.543 0 1.457-.027 1.754-.046l-.058.24c-.322.042-.852.1-1.234.167-.034.2-.061 1.713-.061 2.734V70.9c0 2.517 1.068 3.37 2.349 3.37a2.29 2.29 0 0 0 1.709-.571c.644-.606.8-1.645.8-3.069v-1.1c0-.381-.012-2.551-.061-2.947a28.095 28.095 0 0 0-1.291-.167l-.085-.24c.3.019 1.189.046 1.925.046.617 0 1.249-.027 1.449-.046l-.074.24c-.2.053-.518.1-.83.167-.03.183-.053 1.664-.053 1.991v.564c0 .461.022 1.036.022 1.463a4.1 4.1 0 0 1-1.168 3.299 3.543 3.543 0 0 1-2.485.83A3.273 3.273 0 0 1 62 71.132z" transform="translate(-20.618 -22.383)" style="fill:#72787c"/>
        <path data-name="패스 36" d="M76.181 66.207c.67-.027 1.778-.035 2.711-.088.259.4 2.645 3.4 2.844 3.617.31.328 2.2 2.615 2.578 2.939a46.922 46.922 0 0 0-.248-6.107c-.24-.046-.866-.137-1.2-.167l-.057-.24c.224.019 1.5.046 1.766.046s1.249-.027 1.5-.046l-.048.24c-.154.03-.582.122-.9.167a19.4 19.4 0 0 0-.228 2.517c-.034.563-.128 5.544-.2 6.023-.358-.328-3.644-4.166-3.92-4.474-.165-.183-2.416-2.935-2.815-3.392-.03.248.111 6.477.266 6.907.175.054 1.072.137 1.294.167l.034.248a41.632 41.632 0 0 0-1.755-.049c-.345 0-1.275.026-1.618.049l.036-.248a9.113 9.113 0 0 0 .988-.167c.2-.5.336-7.158.336-7.55a10.878 10.878 0 0 0-1.31-.145z" transform="translate(-25.765 -22.362)" style="fill:#72787c"/>
        <path data-name="패스 37" d="M95.476 69.241c0-.872-.025-2.638-.064-2.905a6.318 6.318 0 0 0-3.072.5 9.193 9.193 0 0 0-.24 1.116l-.27.076c.046-.57.19-2.06.179-3l.272.049c.012.156.032.518.071.773.187.034 2.235.114 3.838.114 1.717 0 3.776-.08 3.964-.114.046-.145.118-.51.166-.739l.3-.049c-.071.277-.345 2.706-.379 3.064l-.272-.072c.021-.472.03-.959.021-1.222a8.661 8.661 0 0 0-3.1-.5c-.034.32-.061 2.053-.061 2.905v.537c0 1.047.026 3.054.061 4 .221.03 1.306.137 1.538.167l.042.248c-.289-.023-1.672-.049-2.326-.049-.537 0-1.958.026-2.306.049l.059-.248 1.519-.167c.038-.929.064-2.973.064-4z" transform="translate(-31.057 -21.992)" style="fill:#72787c"/>
        <path data-name="패스 38" d="M107.173 69.532c0-.427-.011-2.711-.062-2.936-.2-.046-1.008-.114-1.27-.137l-.032-.251 2.56-.007a10.836 10.836 0 0 1 3.354.328 1.428 1.428 0 0 1 1.02 1.352 3.158 3.158 0 0 1-1.675 2.249 31.669 31.669 0 0 0 3.278 4.71l-.525.084c-.83-.381-3.99-4.024-4.179-4.276-.455.038-.938.073-1.14.073v.308c0 .769.024 2.6.061 3.149.2.054.986.137 1.245.167l.047.248c-.295-.023-1.5-.049-2.038-.049-.49 0-1.737.026-2.009.049l.047-.248a12.4 12.4 0 0 0 1.255-.167c.051-.346.062-2.676.062-3.918zm1.329.818a4.207 4.207 0 0 0 1.451-.221 2 2 0 0 0 1.349-1.915c0-.761-.69-1.686-2.739-1.686-.036.491-.061 2.612-.061 3.457z" transform="translate(-35.785 -22.389)" style="fill:#72787c"/>
        <path data-name="패스 39" d="M121.081 71.543a6.724 6.724 0 0 0-.036-.781 33.884 33.884 0 0 0-2.894-4.173 7.645 7.645 0 0 0-.833-.167l-.05-.24c.2.019.989.046 2.065.046a25.4 25.4 0 0 0 1.641-.046l-.061.24c-.213.053-.748.114-1.02.167.7 1.242 1.913 2.97 2.281 3.6a28.141 28.141 0 0 0 2.054-3.6c-.25-.054-.771-.137-.927-.167l-.034-.24c.175.019.842.046 1.5.046.542 0 1.161-.027 1.435-.046l-.038.24c-.175.042-.556.1-.807.167a26 26 0 0 0-2.873 4.07 6.332 6.332 0 0 0-.048.849v.449c0 .324.014 1.912.062 2.212.141.03.928.126 1.15.167l.023.248c-.244-.023-1.317-.05-2.122-.05-.424 0-1.294.026-1.624.05l.057-.248c.227-.03.771-.1 1.044-.167.051-.179.061-1.484.061-2.247z" transform="translate(-39.661 -22.383)" style="fill:#72787c"/>
        <path data-name="패스 40" d="M144.716 66.128a10.229 10.229 0 0 0-.084-1.2 4 4 0 0 0-3.461-1.664A4.08 4.08 0 0 0 136.9 67.4a5.248 5.248 0 0 0 5.346 5.174 6.831 6.831 0 0 0 3.408-.781l-.2.625a7.8 7.8 0 0 1-4.038.86 8.16 8.16 0 0 1-3.265-.633 4.936 4.936 0 0 1-2.973-4.4 5.059 5.059 0 0 1 2.273-4.3 7.017 7.017 0 0 1 4.279-1.2 13.1 13.1 0 0 1 3 .377c.086-.19.259-1.107.3-1.279l.333-.069a35.1 35.1 0 0 0-.32 4.435z" transform="translate(-45.717 -20.896)" style="fill:#72787c"/>
        <path data-name="패스 41" d="M153.674 69.491c0-.681-.011-2.521-.063-2.9a25.376 25.376 0 0 0-1.268-.167l-.039-.24a49.714 49.714 0 0 0 4.238 0l-.058.24c-.289.03-.923.122-1.4.167-.053.381-.061 2.095-.061 3.042v.426c0 1.558.008 3.838.061 4.094a5.521 5.521 0 0 0 2.834-.6 11.344 11.344 0 0 0 .426-1.355l.284-.042a34.585 34.585 0 0 0-.628 3.9l-.271-.056c0-.167.065-1.069.065-1.39-.265-.023-2.829-.072-3.469-.072-.594 0-1.688.026-2.021.049l.051-.248a9.667 9.667 0 0 0 1.256-.167c.052-.521.063-2.81.063-3.99z" transform="translate(-51.51 -22.383)" style="fill:#72787c"/>
        <path data-name="패스 42" d="M163.607 69.274c0-1.066-.028-2.349-.067-2.685a20.34 20.34 0 0 0-.936-.167l-.03-.24a39.252 39.252 0 0 0 3.757 0l-.062.24c-.316.042-.852.1-1.232.167-.04.2-.061 1.713-.061 2.734V70.9c0 2.517 1.068 3.37 2.351 3.37a2.307 2.307 0 0 0 1.709-.571c.642-.606.792-1.645.792-3.069v-1.1c0-.381-.011-2.551-.056-2.947a27.303 27.303 0 0 0-1.3-.167l-.079-.24a40.36 40.36 0 0 0 1.919.046c.619 0 1.249-.027 1.449-.046l-.068.24c-.2.053-.521.1-.833.167-.04.183-.061 1.664-.061 1.991v.564c0 .461.021 1.036.021 1.463a4.087 4.087 0 0 1-1.161 3.289 3.535 3.535 0 0 1-2.481.83 3.274 3.274 0 0 1-3.581-3.594z" transform="translate(-54.983 -22.383)" style="fill:#72787c"/>
        <path data-name="패스 43" d="M179.29 69.757c0-.853-.032-2.707-.079-3.194-.4-.068-.878-.091-1.221-.114l-.061-.247c.4-.015 2.658-.1 3.406-.1 2.313 0 2.671.986 2.671 1.538a1.813 1.813 0 0 1-.306 1.123A3.445 3.445 0 0 1 182.166 70v.034c1.177.195 2.433 1.04 2.433 2.292 0 1.363-1.113 2.281-2.768 2.281-.165 0-.566-.022-.994-.046s-.856-.049-1.108-.049-1.457.026-1.8.049l.044-.248a12.487 12.487 0 0 0 1.238-.167c.079-.822.079-2.589.079-3.632zm1.287.274a2.5 2.5 0 0 0 1.422-.4 1.826 1.826 0 0 0 .693-1.5 1.562 1.562 0 0 0-1.6-1.705 1.346 1.346 0 0 0-.477.069c-.025.122-.034 1.8-.034 2.874zm0 1a27.283 27.283 0 0 0 .143 2.947 1.849 1.849 0 0 0 .946.248c1.128 0 1.6-.628 1.6-1.451a2.524 2.524 0 0 0-1.29-2.1 2.887 2.887 0 0 0-1.4-.286z" transform="translate(-60.176 -22.356)" style="fill:#72787c"/>
    </g>
</svg>
