<svg xmlns="http://www.w3.org/2000/svg" width="68" height="28.964" viewBox="0 0 68 28.964">
    <defs>
        <clipPath id="b471vwcupa">
            <path data-name="사각형 63" style="fill:#fff" d="M0 0h68v28.964H0z"/>
        </clipPath>
    </defs>
    <g data-name="그룹 52" style="clip-path:url(#b471vwcupa)">
        <path data-name="패스 29" d="M7.6 10.318V17.2a9.954 9.954 0 0 1-1.4 6.023c-.744 1.284-1.909 2.626-5.127 5.071l-.626-.21a11.344 11.344 0 0 0 3.16-5.334c.448-1.549.717-5.248.717-11.927V8.764c0-1.13-.033-6.171-.269-7.72C3.339.925.982.684.118.625L0 0c.713.058 4.232.117 5.874.117 1.61 0 4.146-.06 5.158-.117l-.09.625c-.505.06-2.147.3-3.189.419-.121.923-.15 7.036-.15 7.694z" style="fill:#fff"/>
        <path data-name="패스 30" d="M41.548 20.194a20.052 20.052 0 0 0 2.59-.359c-.464-1.336-2.282-6.767-2.693-7.511-.9 0-4.973.179-5.92.33a60.534 60.534 0 0 0-1.8 7.181 14.89 14.89 0 0 0 2.2.359l.1.539c-.794-.049-3.127-.1-3.871-.1-.665 0-2.383.055-2.973.1l.076-.539a20.446 20.446 0 0 0 2.206-.359C32.4 18.219 37.5 4.426 37.856 3.452a17.35 17.35 0 0 0-2.024-.333l-.025-.536c.768.049 2.9.1 3.331.1 1.076 0 3.641-.051 4.383-.1l-.076.536a15.311 15.311 0 0 0-1.948.333c.309 1.132 1.718 5.15 2.69 7.846a89.273 89.273 0 0 0 3.487 8.536c.745.152 1.488.257 2.257.359l.078.539c-.307-.049-2.9-.1-4.256-.1-.742 0-3.641.055-4.332.1zm-2.9-16.306H38.6c-.791 2.283-2.458 6.715-2.714 7.564l5.382.1c-.568-1.69-2.181-6.252-2.615-7.664" transform="translate(-18.766 -1.66)" style="fill:#fff"/>
        <path data-name="패스 31" d="M88.95 14.166a14.737 14.737 0 0 0-.078-1.689 72.613 72.613 0 0 0-6.255-9 13.555 13.555 0 0 0-1.792-.358l-.1-.536c.438.049 2.129.1 4.461.1 1.463 0 3.181-.051 3.539-.1l-.13.536c-.46.1-1.615.232-2.2.358 1.514 2.669 4.129 6.409 4.923 7.769.409-.744 4.357-6.715 4.434-7.769-.538-.125-1.666-.306-2-.358l-.077-.536c.386.049 1.821.1 3.231.1 1.179 0 2.513-.051 3.1-.1l-.078.536c-.383.078-1.2.208-1.743.358-.563.181-5.844 7.665-6.2 8.795a12.459 12.459 0 0 0-.1 1.819v.976c0 .692.025 4.129.126 4.768.31.078 2 .281 2.485.359l.051.538c-.538-.049-2.843-.1-4.587-.1-.922 0-2.794.056-3.514.1l.133-.538a21.552 21.552 0 0 0 2.253-.359c.1-.383.128-3.206.128-4.846z" transform="translate(-51.89 -1.66)" style="fill:#fff"/>
        <path data-name="패스 32" d="M137 9.272c0-2.305-.053-5.078-.129-5.795-.538-.125-1.334-.255-2.025-.358l-.078-.536c.716.05 2.358.1 4.332.1 1.18 0 3.155-.051 3.8-.1l-.129.536c-.691.078-1.847.208-2.667.358-.077.436-.125 3.693-.125 5.9v3.409c0 5.436 2.305 7.283 5.073 7.283a5 5 0 0 0 3.692-1.235c1.383-1.307 1.716-3.559 1.716-6.638V9.837c0-.822-.025-5.511-.127-6.36-.59-.1-2.13-.306-2.8-.358l-.179-.536c.639.05 2.562.1 4.153.1 1.334 0 2.691-.051 3.128-.1l-.154.536c-.435.1-1.129.208-1.795.358-.077.385-.128 3.592-.128 4.284v1.232c0 1 .05 2.227.05 3.15 0 2.9-.539 5.358-2.511 7.1a7.62 7.62 0 0 1-5.359 1.794c-5.3 0-7.74-3.282-7.74-7.768z" transform="translate(-86.632 -1.66)" style="fill:#fff"/>
        <path data-name="패스 33" d="M32.336 64.13a5.291 5.291 0 0 0-.048-.649 2.158 2.158 0 0 0-1.869-.9 2.2 2.2 0 0 0-2.3 2.236A2.831 2.831 0 0 0 31 67.61a3.685 3.685 0 0 0 1.836-.421l-.109.338a4.2 4.2 0 0 1-2.179.464 4.384 4.384 0 0 1-1.76-.341 2.663 2.663 0 0 1-1.607-2.373 2.728 2.728 0 0 1 1.227-2.32 3.793 3.793 0 0 1 2.312-.645 7.1 7.1 0 0 1 1.62.2c.045-.1.14-.6.165-.69l.175-.037a18.243 18.243 0 0 0-.166 2.394z" transform="translate(-17.475 -39.719)" style="fill:#fff"/>
        <path data-name="패스 34" d="M45.059 69.93a2 2 0 0 1-.614-1.549 2.552 2.552 0 0 1 2.813-2.423 2.758 2.758 0 0 1 1.773.518 1.989 1.989 0 0 1 .775 1.59 2.563 2.563 0 0 1-2.766 2.583 2.6 2.6 0 0 1-1.981-.719m3.965-1.4a2.174 2.174 0 0 0-2-2.332 1.792 1.792 0 0 0-1.838 1.909 2.261 2.261 0 0 0 2.171 2.275 1.77 1.77 0 0 0 1.672-1.852" transform="translate(-28.571 -42.4)" style="fill:#fff"/>
        <path data-name="패스 35" d="M61.524 67.851c0-.575-.014-1.268-.035-1.449-.134-.029-.335-.061-.5-.09l-.023-.13c.18.01.591.025 1.086.025.293 0 .786-.015.946-.025l-.031.13c-.174.023-.46.053-.666.09-.019.109-.033.925-.033 1.475v.853c0 1.358.576 1.819 1.268 1.819a1.236 1.236 0 0 0 .923-.308 2.221 2.221 0 0 0 .43-1.656v-.592c0-.205-.006-1.376-.033-1.59-.148-.025-.53-.074-.7-.09l-.046-.13c.162.01.642.025 1.039.025.333 0 .674-.015.782-.025l-.04.13c-.107.029-.279.053-.448.09-.016.1-.029.9-.029 1.075v.3c0 .249.012.559.012.789a2.211 2.211 0 0 1-.63 1.775 1.912 1.912 0 0 1-1.341.448 1.766 1.766 0 0 1-1.932-1.939z" transform="translate(-39.189 -42.544)" style="fill:#fff"/>
        <path data-name="패스 36" d="M76.181 66.167c.361-.015.96-.019 1.463-.048.14.218 1.427 1.833 1.535 1.952.168.177 1.188 1.411 1.391 1.586a25.323 25.323 0 0 0-.134-3.3 8.976 8.976 0 0 0-.647-.09l-.031-.129c.121.01.811.025.953.025s.674-.015.808-.025l-.026.129c-.083.016-.314.066-.487.09a10.474 10.474 0 0 0-.123 1.359c-.019.3-.069 2.992-.108 3.251-.193-.177-1.967-2.248-2.115-2.415-.089-.1-1.3-1.584-1.519-1.831-.016.134.06 3.5.144 3.728.095.029.579.074.7.09l.019.134a22.3 22.3 0 0 0-.947-.026c-.186 0-.688.014-.873.026l.019-.134a4.916 4.916 0 0 0 .533-.09c.107-.269.181-3.863.181-4.075a5.869 5.869 0 0 0-.707-.078z" transform="translate(-48.972 -42.504)" style="fill:#fff"/>
        <path data-name="패스 37" d="M93.8 67.3c0-.47-.014-1.424-.034-1.568a3.41 3.41 0 0 0-1.661.268 4.958 4.958 0 0 0-.13.6l-.146.041c.025-.308.1-1.111.1-1.617l.147.026c.006.084.018.279.038.417.1.019 1.206.062 2.071.062.927 0 2.038-.043 2.139-.062.025-.078.064-.275.09-.4l.16-.026c-.038.15-.186 1.46-.2 1.654l-.147-.039c.011-.255.016-.518.011-.66a4.674 4.674 0 0 0-1.673-.267c-.019.173-.033 1.108-.033 1.568v.29c0 .565.014 1.648.033 2.16.119.016.7.074.83.09l.023.134c-.156-.012-.9-.026-1.255-.026-.29 0-1.056.014-1.244.026l.032-.134.82-.09c.021-.5.034-1.6.034-2.16z" transform="translate(-59.032 -41.802)" style="fill:#fff"/>
        <path data-name="패스 38" d="M106.544 68c0-.23-.006-1.463-.034-1.585-.108-.025-.544-.062-.685-.074l-.018-.136h1.382a5.848 5.848 0 0 1 1.81.177.771.771 0 0 1 .551.73 1.7 1.7 0 0 1-.9 1.214 17.091 17.091 0 0 0 1.769 2.542l-.284.045a17.41 17.41 0 0 1-2.255-2.308c-.246.021-.506.039-.615.039v.166c0 .415.013 1.4.033 1.7.107.029.532.074.672.09l.025.134a26.486 26.486 0 0 0-1.1-.026c-.264 0-.937.014-1.084.026l.025-.134a6.687 6.687 0 0 0 .678-.09c.027-.187.034-1.444.034-2.114zm.717.441a2.27 2.27 0 0 0 .783-.119 1.082 1.082 0 0 0 .728-1.034c0-.411-.373-.91-1.478-.91-.02.265-.033 1.41-.033 1.866z" transform="translate(-68.018 -42.556)" style="fill:#fff"/>
        <path data-name="패스 39" d="M119.326 69.075a3.627 3.627 0 0 0-.02-.421 18.286 18.286 0 0 0-1.562-2.252 4.129 4.129 0 0 0-.45-.09l-.027-.13c.11.01.534.025 1.115.025.366 0 .8-.015.886-.025l-.033.13c-.115.029-.4.061-.551.09.378.67 1.033 1.6 1.231 1.942a15.186 15.186 0 0 0 1.109-1.942c-.135-.029-.416-.074-.5-.09l-.019-.13c.094.01.455.025.808.025.293 0 .626-.015.774-.025l-.02.13c-.095.023-.3.053-.436.09a14.035 14.035 0 0 0-1.55 2.2 3.417 3.417 0 0 0-.026.458v.24c0 .175.007 1.032.033 1.194.076.016.5.068.62.09l.012.134a21.952 21.952 0 0 0-1.145-.027c-.229 0-.7.014-.876.027l.031-.134c.123-.016.416-.054.563-.09.027-.1.033-.8.033-1.213z" transform="translate(-75.385 -42.544)" style="fill:#fff"/>
        <path data-name="패스 40" d="M140.324 64.13a5.519 5.519 0 0 0-.045-.649 2.157 2.157 0 0 0-1.868-.9 2.2 2.2 0 0 0-2.3 2.236 2.833 2.833 0 0 0 2.885 2.792 3.687 3.687 0 0 0 1.839-.421l-.109.338a4.209 4.209 0 0 1-2.179.464 4.4 4.4 0 0 1-1.762-.341 2.664 2.664 0 0 1-1.6-2.373 2.73 2.73 0 0 1 1.227-2.32 3.787 3.787 0 0 1 2.309-.645 7.069 7.069 0 0 1 1.621.2c.046-.1.14-.6.164-.69l.18-.037a18.948 18.948 0 0 0-.173 2.394z" transform="translate(-86.897 -39.719)" style="fill:#fff"/>
        <path data-name="패스 41" d="M153.043 67.968c0-.368-.006-1.36-.034-1.566a13.448 13.448 0 0 0-.684-.09l-.021-.129a26.39 26.39 0 0 0 2.287 0l-.031.129c-.156.016-.5.066-.754.09-.029.205-.033 1.13-.033 1.642v.23c0 .841 0 2.072.033 2.209a2.98 2.98 0 0 0 1.53-.325 6.123 6.123 0 0 0 .23-.731l.153-.023a18.668 18.668 0 0 0-.339 2.1l-.148-.029c0-.09.035-.577.035-.75a67.486 67.486 0 0 0-1.872-.039c-.32 0-.911.014-1.091.026l.027-.134a5.216 5.216 0 0 0 .678-.09c.028-.281.034-1.517.034-2.153z" transform="translate(-97.907 -42.545)" style="fill:#fff"/>
        <path data-name="패스 42" d="M163.132 67.851c0-.575-.015-1.268-.036-1.449-.131-.029-.328-.061-.505-.09l-.016-.13a21.497 21.497 0 0 0 2.03 0l-.033.13c-.17.023-.46.053-.665.09-.021.109-.033.925-.033 1.475v.853c0 1.358.576 1.819 1.269 1.819a1.245 1.245 0 0 0 .923-.308 2.226 2.226 0 0 0 .428-1.656v-.592c0-.205-.006-1.376-.03-1.59a14.463 14.463 0 0 0-.7-.09l-.043-.13c.157.01.641.025 1.035.025.334 0 .674-.015.782-.025l-.037.13c-.11.029-.281.053-.449.09-.022.1-.033.9-.033 1.075v.3c0 .249.011.559.011.789a2.205 2.205 0 0 1-.626 1.775 1.908 1.908 0 0 1-1.339.448 1.767 1.767 0 0 1-1.933-1.939z" transform="translate(-104.509 -42.544)" style="fill:#fff"/>
        <path data-name="패스 43" d="M178.664 68.075c0-.46-.018-1.461-.043-1.724-.217-.037-.474-.049-.659-.062l-.033-.133c.214-.008 1.434-.054 1.838-.054 1.248 0 1.441.532 1.441.83a.978.978 0 0 1-.165.606 1.859 1.859 0 0 1-.828.666v.018c.635.105 1.313.561 1.313 1.237 0 .736-.6 1.231-1.494 1.231-.089 0-.305-.012-.536-.025s-.462-.026-.6-.026-.786.014-.972.026l.024-.134a6.74 6.74 0 0 0 .668-.09c.043-.444.043-1.4.043-1.96zm.695.148a1.347 1.347 0 0 0 .767-.218.986.986 0 0 0 .374-.808.843.843 0 0 0-.865-.92.727.727 0 0 0-.258.037c-.014.066-.019.974-.019 1.551zm0 .539a14.724 14.724 0 0 0 .077 1.59 1 1 0 0 0 .511.134c.609 0 .866-.339.866-.783a1.362 1.362 0 0 0-.7-1.132 1.558 1.558 0 0 0-.757-.154z" transform="translate(-114.38 -42.493)" style="fill:#fff"/>
    </g>
</svg>
