<svg xmlns="http://www.w3.org/2000/svg" width="30" height="30" viewBox="0 0 30 30">
    <path d="M0 0v3" transform="translate(10 2)" style="stroke-width:1.5px;stroke:#000;stroke-linecap:round;stroke-linejoin:round;fill:none"/>
    <path data-name="Vector" d="M0 0v3" transform="translate(20 2)" style="stroke-width:1.5px;stroke:#000;stroke-linecap:round;stroke-linejoin:round;fill:none"/>
    <path data-name="Vector" d="M6.4 3.2A3.2 3.2 0 1 1 3.2 0a3.2 3.2 0 0 1 3.2 3.2z" style="stroke-width:1.5px;stroke:#000;stroke-linecap:round;stroke-linejoin:round;fill:none" transform="translate(21 21)"/>
    <path data-name="Vector" d="M1 1 0 0" transform="translate(27 27)" style="stroke-width:1.5px;stroke:#000;stroke-linecap:round;stroke-linejoin:round;fill:none"/>
    <path data-name="Vector" d="M0 0h23" transform="translate(3.5 11.362)" style="stroke-width:1.5px;stroke:#000;stroke-linecap:round;stroke-linejoin:round;fill:none"/>
    <path data-name="Vector" d="M13.827 24.5h-7.16C2 24.5 0 21.851 0 17.878V6.622C0 2.649 2 0 6.667 0h10.666C22 0 24 2.649 24 6.622v5.959" transform="translate(3 3.5)" style="stroke-width:1.5px;stroke:#000;stroke-linecap:round;stroke-linejoin:round;fill:none"/>
    <path data-name="Vector" d="M.495.5H.5" transform="translate(14.501 16.625)" style="stroke-width:2px;stroke:#000;stroke-linecap:round;stroke-linejoin:round;fill:none"/>
    <path data-name="Vector" d="M.495.5H.5" transform="translate(9.874 16.625)" style="stroke-width:2px;stroke:#000;stroke-linecap:round;stroke-linejoin:round;fill:none"/>
    <path data-name="Vector" d="M.495.5H.5" transform="translate(9.874 20.375)" style="stroke-width:2px;stroke:#000;stroke-linecap:round;stroke-linejoin:round;fill:none"/>
</svg>
