<svg xmlns="http://www.w3.org/2000/svg" width="60" height="42.331" viewBox="0 0 60 42.331">
    <defs>
        <clipPath id="eqpjs9m3ea">
            <path data-name="사각형 78" style="fill:none" d="M0 0h42v42.331H0z"/>
        </clipPath>
    </defs>
    <g data-name="그룹 64" transform="translate(8.5)" style="clip-path:url(#eqpjs9m3ea)">
        <path data-name="패스 44" d="M36.808 25.09a12.381 12.381 0 1 0-12.382 12.382A12.382 12.382 0 0 0 36.808 25.09" transform="translate(-3.76 -3.967)" style="fill:#fbb040"/>
        <path data-name="패스 45" d="M18.32 42.33c-.252-.028-.5-.06-.752-.1l.691-4.765q.293.042.589.075zm11.147-1.767-1.991-4.384q.269-.123.536-.255l2.141 4.312q-.34.169-.686.326M7.237 37.7q-.3-.241-.587-.493l3.167-3.627q.22.192.446.376zm31.335-4.974-4.04-2.621q.16-.247.31-.5l4.133 2.472q-.2.327-.4.647M.4 27.814a25.442 25.442 0 0 1-.226-.726L4.8 25.74c.055.189.113.378.175.564zM42 21.2h-4.814v-.08c0-.2 0-.393-.011-.589l4.812-.173c.009.252.014.507.014.761zM4.666 17 0 15.811l.2-.74 4.616 1.368q-.083.279-.154.561m29.9-4.8q-.16-.25-.329-.493L38.2 8.961q.216.311.422.631zM9.434 9.012 6.151 5.49c.186-.175.377-.345.571-.512l3.147 3.643c-.147.128-.293.258-.435.391M27.54 6.1q-.265-.122-.536-.234l1.843-4.448c.237.1.468.2.7.306zm-9.788-1.24L16.907.12q.374-.066.753-.12l.673 4.768c-.195.028-.389.058-.581.093" style="fill:#ffed96"/>
    </g>
</svg>
